<svg xmlns="http://www.w3.org/2000/svg" style="display:none">
  <symbol id="whatsapp" viewBox="0 0 24 24"><path d="M17.472 14.382c-.297-.149-1.758-.867-2.03-.967-.273-.099-.471-.148-.67.15-.197.297-.767.966-.94 1.164-.173.199-.347.223-.644.075-.297-.15-1.255-.463-2.39-1.475-.883-.788-1.48-1.761-1.653-2.059-.173-.297-.018-.458.13-.606.134-.133.298-.347.446-.52.149-.174.198-.298.298-.497.099-.198.05-.371-.025-.52-.075-.149-.669-1.612-.916-2.207-.242-.579-.487-.5-.669-.51-.173-.008-.371-.01-.57-.01-.198 0-.52.074-.792.372-.272.297-1.04 1.016-1.04 2.479 0 1.462 1.065 2.875 1.213 3.074.149.198 2.096 3.2 5.077 4.487.709.306 1.262.489 1.694.625.712.227 1.36.195 1.871.118.571-.085 1.758-.719 2.006-1.413.248-.694.248-1.289.173-1.413-.074-.124-.272-.198-.57-.347" /></symbol>
  <symbol id="whatsapp-badge" viewBox="0 0 24 24"><path d="M17.472 14.382c-.297-.149-1.758-.867-2.03-.967-.273-.099-.471-.148-.67.15-.197.297-.767.966-.94 1.164-.173.199-.347.223-.644.075-.297-.15-1.255-.463-2.39-1.475-.883-.788-1.48-1.761-1.653-2.059-.173-.297-.018-.458.13-.606.134-.133.298-.347.446-.52.149-.174.198-.298.298-.497.099-.198.05-.371-.025-.52-.075-.149-.669-1.612-.916-2.207-.242-.579-.487-.5-.669-.51-.173-.008-.371-.01-.57-.01-.198 0-.52.074-.792.372-.272.297-1.04 1.016-1.04 2.479 0 1.462 1.065 2.875 1.213 3.074.149.198 2.096 3.2 5.077 4.487.709.306 1.262.489 1.694.625.712.227 1.36.195 1.871.118.571-.085 1.758-.719 2.006-1.413.248-.694.248-1.289.173-1.413-.074-.124-.272-.198-.57-.347m-5.421 7.403h-.004a9.87 9.87 0 01-5.031-1.378l-.361-.214-3.741.982.998-3.648-.235-.374a9.86 9.86 0 01-1.51-5.26c.001-5.45 4.436-9.884 9.888-9.884 2.64 0 5.122 1.03 6.988 2.898a9.825 9.825 0 012.893 6.994c-.003 5.45-4.437 9.884-9.885 9.884m8.413-18.297A11.815 11.815 0 0012.05 0C5.495 0 .16 5.335.157 11.892c0 2.096.547 4.142 1.588 5.945L.057 24l6.305-1.654a11.882 11.882 0 005.683 1.448h.005c6.554 0 11.89-5.335 11.893-11.893a11.821 11.821 0 00-3.48-8.413z" /></symbol>
  <symbol id="instagram" viewBox="0 0 24 24"><rect x="2" y="2" width="20" height="20" rx="5" ry="5" /> <path d="M16 11.37A4 4 0 1 1 12.63 8 4 4 0 0 1 16 11.37z" /> <line x1="17.5" y1="6.5" x2="17.51" y2="6.5" /></symbol>
  <symbol id="check" viewBox="0 0 24 24"><polyline points="20 6 9 17 4 12" /></symbol>
  <symbol id="phone" viewBox="0 0 24 24"><path d="M22 16.92v3a2 2 0 0 1-2.18 2 19.79 19.79 0 0 1-8.63-3.07 19.5 19.5 0 0 1-6-6 19.79 19.79 0 0 1-3.07-8.67A2 2 0 0 1 4.11 2h3a2 2 0 0 1 2 1.72c.127.96.361 1.903.7 2.81a2 2 0 0 1-.45 2.11L8.09 9.91a16 16 0 0 0 6 6l1.27-1.27a2 2 0 0 1 2.11-.45c.907.339 1.85.573 2.81.7A2 2 0 0 1 22 16.92z" /></symbol>
  <symbol id="clock" viewBox="0 0 24 24"><circle cx="12" cy="12" r="10" /> <polyline points="12 6 12 12 16 14" /></symbol>
  <symbol id="form" viewBox="0 0 24 24"><path d="M4 7h16M4 12h16M4 17h10" /></symbol>
  <symbol id="users" viewBox="0 0 24 24"><path d="M17 21v-2a4 4 0 0 0-4-4H5a4 4 0 0 0-4 4v2" /> <circle cx="9" cy="7" r="4" /> <path d="M23 21v-2a4 4 0 0 0-3-3.87" /> <path d="M16 3.13a4 4 0 0 1 0 7.75" /></symbol>
  <symbol id="briefcase" viewBox="0 0 24 24"><rect x="2" y="7" width="20" height="14" rx="2" ry="2" /> <path d="M16 21V5a2 2 0 0 0-2-2h-4a2 2 0 0 0-2 2v16" /></symbol>
  <symbol id="heart" viewBox="0 0 24 24"><path d="M20.84 4.61a5.5 5.5 0 0 0-7.78 0L12 5.67l-1.06-1.06a5.5 5.5 0 0 0-7.78 7.78l1.06 1.06L12 21.23l7.78-7.78 1.06-1.06a5.5 5.5 0 0 0 0-7.78z" /></symbol>
  <symbol id="dollar" viewBox="0 0 24 24"><line x1="12" y1="1" x2="12" y2="23" /> <path d="M17 5H9.5a3.5 3.5 0 0 0 0 7h5a3.5 3.5 0 0 1 0 7H6" /></symbol>
  <symbol id="pin" viewBox="0 0 24 24"><path d="M21 10c0 7-9 13-9 13s-9-6-9-13a9 9 0 0 1 18 0z" /> <circle cx="12" cy="10" r="3" /></symbol>
  <symbol id="monitor" viewBox="0 0 24 24"><rect x="2" y="3" width="20" height="14" rx="2" ry="2" /> <line x1="8" y1="21" x2="16" y2="21" /> <line x1="12" y1="17" x2="12" y2="21" /></symbol>
  <symbol id="card" viewBox="0 0 24 24"><rect x="2" y="5" width="20" height="14" rx="2" ry="2" /> <line x1="2" y1="10" x2="22" y2="10" /></symbol>
  <symbol id="send" viewBox="0 0 24 24"><line x1="22" y1="2" x2="11" y2="13" /> <polygon points="22 2 15 22 11 13 2 9 22 2" /></symbol>
</svg>
